# xmcd
#
# Track frame offsets:
#   150
#   58350
#   97050
#   159000
#   218400
#   267825
#
# Disc length: 4222 seconds
#
# Revision: 0
# Processed by: cddbd v1.5.2PL0 Copyright (c) Steve Scherf et al.
# Submitted via: GXTranscoder 2.0.1939
#
DISCID=4b107c06
DTITLE=ha - chr
DYEAR=1900
DGENRE=mus
TTITLE0=a
TTITLE1=s
TTITLE2=d
TTITLE3=f
TTITLE4=g
TTITLE5=h
EXTD=
EXTT0=
EXTT1=
EXTT2=
EXTT3=
EXTT4=
EXTT5=
PLAYORDER=
